<?xml version="1.0" encoding="UTF-8" standalone="no" ?>
<!DOCTYPE svg PUBLIC "-//W3C//DTD SVG 1.1//EN" "http://www.w3.org/Graphics/SVG/1.1/DTD/svg11.dtd">
<svg xmlns="http://www.w3.org/2000/svg" xmlns:xlink="http://www.w3.org/1999/xlink" version="1.1" width="1080" height="1080" viewBox="0 0 1080 1080" xml:space="preserve">
<desc>Created with Fabric.js 5.2.4</desc>
<defs>
</defs>
<g transform="matrix(1 0 0 1 540 540)" id="22a9c1e0-ea0c-445f-bf6a-b9b98463b642"  >
<rect style="stroke: none; stroke-width: 1; stroke-dasharray: none; stroke-linecap: butt; stroke-dashoffset: 0; stroke-linejoin: miter; stroke-miterlimit: 4; fill: rgb(255,255,255); fill-rule: nonzero; opacity: 1; visibility: hidden;" vector-effect="non-scaling-stroke"  x="-540" y="-540" rx="0" ry="0" width="1080" height="1080" />
</g>
<g transform="matrix(1 0 0 1 540 540)" id="27f913e9-f2ad-463e-94d3-9b0fefe6e37a"  >
</g>
<g transform="matrix(45 0 0 45 540 540)"  >
<path style="stroke: rgb(0,0,0); stroke-width: 1.5; stroke-dasharray: none; stroke-linecap: round; stroke-dashoffset: 0; stroke-linejoin: round; stroke-miterlimit: 4; fill: none; fill-rule: nonzero; opacity: 1;"  transform=" translate(-12, -12)" d="M 15 13.5 L 9 13.5 M 13.059999999999999 6.31 L 10.939999999999998 4.1899999999999995 C 10.658720316465772 3.90837004334281 10.277037291779097 3.7500849058667147 9.878999999999998 3.7499999999999996 L 4.5 3.7499999999999996 C 3.257359312880715 3.7499999999999996 2.25 4.757359312880714 2.25 6 L 2.25 18 C 2.25 19.242640687119284 3.257359312880715 20.25 4.5 20.25 L 19.5 20.25 C 20.742640687119284 20.25 21.75 19.242640687119284 21.75 18 L 21.75 9 C 21.75 7.757359312880714 20.742640687119284 6.75 19.5 6.75 L 14.121 6.75 C 13.723309299381004 6.7496498959202365 13.342034716566404 6.591384974751913 13.061 6.31 Z" stroke-linecap="round" />
</g>
</svg>