<?xml version="1.0" encoding="UTF-8" standalone="no" ?>
<!DOCTYPE svg PUBLIC "-//W3C//DTD SVG 1.1//EN" "http://www.w3.org/Graphics/SVG/1.1/DTD/svg11.dtd">
<svg xmlns="http://www.w3.org/2000/svg" xmlns:xlink="http://www.w3.org/1999/xlink" version="1.1" width="1080" height="1080" viewBox="0 0 1080 1080" xml:space="preserve">
<desc>Created with Fabric.js 5.2.4</desc>
<defs>
</defs>
<g transform="matrix(1 0 0 1 540 540)" id="2736aa64-026d-4cbf-a8a2-92edadcbd2ad"  >
<rect style="stroke: none; stroke-width: 1; stroke-dasharray: none; stroke-linecap: butt; stroke-dashoffset: 0; stroke-linejoin: miter; stroke-miterlimit: 4; fill: rgb(255,255,255); fill-rule: nonzero; opacity: 1; visibility: hidden;" vector-effect="non-scaling-stroke"  x="-540" y="-540" rx="0" ry="0" width="1080" height="1080" />
</g>
<g transform="matrix(1 0 0 1 540 540)" id="6c569f4a-52de-4def-b686-082c05d80812"  >
</g>
<g transform="matrix(45 0 0 45 540 540)"  >
<path style="stroke: rgb(0,0,0); stroke-width: 1.5; stroke-dasharray: none; stroke-linecap: round; stroke-dashoffset: 0; stroke-linejoin: round; stroke-miterlimit: 4; fill: none; fill-rule: nonzero; opacity: 1;"  transform=" translate(-12, -12)" d="M 10.5 1.5 L 8.25 1.5 C 7.007359312880714 1.5 6 2.507359312880715 6 3.75 L 6 20.25 C 6 21.492640687119284 7.007359312880714 22.5 8.25 22.5 L 15.75 22.5 C 16.992640687119284 22.5 18 21.492640687119284 18 20.25 L 18 3.75 C 18 2.507359312880715 16.992640687119284 1.5 15.75 1.5 L 13.5 1.5 M 10.5 1.5 L 10.5 3 L 13.5 3 L 13.5 1.5 M 10.5 1.5 L 13.5 1.5 M 10.5 20.25 L 13.5 20.25" stroke-linecap="round" />
</g>
</svg>