<?xml version="1.0" encoding="UTF-8" standalone="no" ?>
<!DOCTYPE svg PUBLIC "-//W3C//DTD SVG 1.1//EN" "http://www.w3.org/Graphics/SVG/1.1/DTD/svg11.dtd">
<svg xmlns="http://www.w3.org/2000/svg" xmlns:xlink="http://www.w3.org/1999/xlink" version="1.1" width="1080" height="1080" viewBox="0 0 1080 1080" xml:space="preserve">
<desc>Created with Fabric.js 5.2.4</desc>
<defs>
</defs>
<rect x="0" y="0" width="100%" height="100%" fill="transparent"></rect>
<g transform="matrix(1 0 0 1 540 540)" id="22a9c1e0-ea0c-445f-bf6a-b9b98463b642"  >
<rect style="stroke: none; stroke-width: 1; stroke-dasharray: none; stroke-linecap: butt; stroke-dashoffset: 0; stroke-linejoin: miter; stroke-miterlimit: 4; fill: rgb(255,255,255); fill-rule: nonzero; opacity: 1; visibility: hidden;" vector-effect="non-scaling-stroke"  x="-540" y="-540" rx="0" ry="0" width="1080" height="1080" />
</g>
<g transform="matrix(1 0 0 1 540 540)" id="27f913e9-f2ad-463e-94d3-9b0fefe6e37a"  >
</g>
<g transform="matrix(45 0 0 45 540 540)"  >
<path style="stroke: rgb(0,0,0); stroke-width: 1.5; stroke-dasharray: none; stroke-linecap: round; stroke-dashoffset: 0; stroke-linejoin: round; stroke-miterlimit: 4; fill: none; fill-rule: nonzero; opacity: 1;"  transform=" translate(-12, -12)" d="M 6.72 13.829 C 6.4799999999999995 13.859 6.24 13.891 6 13.925 M 6.72 13.829 C 10.226256533612263 13.38910455021744 13.773743466387742 13.389104550217432 17.280000000000005 13.828999999999994 M 6.720000000000001 13.829 L 6.34 18 M 17.28 13.829 C 17.52 13.859 17.76 13.891 18 13.925 M 17.28 13.829 L 17.66 18 M 17.66 18 L 17.889 20.523 C 17.917654537190966 20.83774081759902 17.812598545800217 21.15001905662255 17.599532344648367 21.383440689491586 C 17.38646614349652 21.61686232236062 17.085042487913558 21.749897053727036 16.769 21.75 L 7.231 21.75 C 6.569 21.75 6.051 21.182 6.111 20.523 L 6.34 18 M 17.658 18 L 18.749000000000002 18 C 19.34591034463037 18.000265293512708 19.91846358527347 17.76332952459611 20.340636743571583 17.341343915457614 C 20.762809901869698 16.91935830631912 21.000000058954118 16.34691040358448 21 15.75 L 21 9.456 C 21 8.375 20.232 7.440999999999999 19.163 7.281 C 18.527050112454113 7.185876016630454 17.88925499864242 7.103526098642213 17.250000000000007 7.033999999999993 M 6.34 18 L 5.25 18 C 4.007359312880714 18 3 16.992640687119284 3 15.75 L 3 9.456 C 3 8.375 3.768 7.440999999999999 4.837 7.281 C 5.472949368420036 7.185872290874525 6.110744557121241 7.103522363216811 6.749999999999949 7.034 M 17.25 7.034 C 13.760297944974193 6.654301132950503 10.23970205502578 6.654301132950492 6.749999999999975 7.033999999999993 M 17.25 7.034 L 17.25 3.375 C 17.25 2.754 16.746 2.25 16.125 2.25 L 7.875 2.25 C 7.254 2.25 6.75 2.754 6.75 3.375 L 6.75 7.034 M 18 10.5 L 18.008 10.5 L 18.008 10.508 L 18 10.508 L 18 10.5 Z M 15 10.5 L 15.008 10.5 L 15.008 10.508 L 15 10.508 L 15 10.5 Z" stroke-linecap="round" />
</g>
</svg>